<?xml version="1.0" encoding="UTF-8"?>
<!DOCTYPE svg PUBLIC "-//W3C//DTD SVG 1.1//EN" "http://www.w3.org/Graphics/SVG/1.1/DTD/svg11.dtd">
<!-- Creator: CorelDRAW -->
<svg xmlns="http://www.w3.org/2000/svg" xml:space="preserve" width="210mm" height="297mm" version="1.1" style="shape-rendering:geometricPrecision; text-rendering:geometricPrecision; image-rendering:optimizeQuality; fill-rule:evenodd; clip-rule:evenodd"
viewBox="0 0 21000 29700"
 xmlns:xlink="http://www.w3.org/1999/xlink">
 <defs>
  <style type="text/css">
   <![CDATA[
    .fil4 {fill:#0283DF}
    .fil3 {fill:#1AAC5B}
    .fil5 {fill:#929292}
    .fil2 {fill:#9436D4}
    .fil1 {fill:#F79D11}
    .fil0 {fill:red}
   ]]>
  </style>
 </defs>
 <g id="Layer_x0020_1">
  <metadata id="CorelCorpID_0Corel-Layer"/>
  <g id="_0001_LOGO_AGODA_X4.cdr">
   <circle class="fil0" cx="1118" cy="17702" r="1439"/>
   <g>
    <g>
     <circle class="fil0" cx="1118" cy="17702" r="1439"/>
     <circle class="fil1" cx="5675" cy="17702" r="1439"/>
     <circle class="fil2" cx="15183" cy="17702" r="1439"/>
     <circle class="fil3" cx="10403" cy="17702" r="1439"/>
     <circle class="fil4" cx="19914" cy="17702" r="1439"/>
    </g>
    <path class="fil5" d="M1651 14128c-177,134 -347,234 -512,301 -165,67 -350,100 -555,100 -187,0 -352,-36 -494,-109 -141,-72 -251,-170 -328,-294 -76,-124 -115,-258 -115,-403 0,-196 63,-362 190,-500 127,-139 301,-231 523,-278 46,-11 161,-34 345,-71 183,-36 341,-69 472,-101 130,-30 273,-67 426,-111 -9,-188 -47,-327 -116,-415 -69,-88 -211,-132 -427,-132 -186,0 -325,25 -418,76 -94,50 -175,126 -241,228 -67,101 -115,167 -142,200 -28,33 -88,49 -178,49 -82,0 -153,-26 -213,-78 -59,-51 -89,-117 -89,-198 0,-126 45,-248 136,-367 91,-119 233,-217 425,-293 193,-77 433,-116 721,-116 320,0 573,38 757,112 183,74 313,191 389,352 75,161 114,374 114,640 0,168 -1,310 -2,427 -1,117 -2,248 -4,391 0,134 23,274 69,420 45,145 67,239 67,281 0,73 -34,140 -105,200 -71,60 -150,90 -240,90 -75,0 -149,-34 -222,-102 -73,-69 -150,-169 -233,-299zm-48 -1036c-107,38 -262,79 -467,121 -203,43 -345,75 -423,95 -79,21 -154,60 -225,118 -71,59 -107,140 -107,246 0,108 42,200 126,276 83,76 193,115 329,115 144,0 278,-32 399,-93 122,-63 212,-143 269,-241 66,-108 99,-287 99,-536l0 -101zm5512 -945l0 2077c0,238 -25,442 -77,613 -52,172 -135,313 -249,425 -114,111 -264,195 -448,248 -185,55 -415,82 -689,82 -252,0 -476,-35 -674,-104 -198,-69 -350,-158 -458,-267 -107,-110 -160,-221 -160,-337 0,-87 31,-158 91,-213 61,-55 134,-83 220,-83 107,0 201,46 281,139 39,46 80,94 122,142 42,48 88,89 138,123 51,34 113,60 184,76 71,17 153,25 245,25 190,0 336,-26 440,-77 105,-52 178,-124 219,-217 42,-92 66,-191 74,-296 7,-106 13,-275 15,-509 -112,154 -242,271 -389,350 -147,81 -322,121 -525,121 -244,0 -458,-61 -641,-183 -182,-123 -323,-294 -421,-514 -97,-220 -147,-474 -147,-762 0,-216 31,-410 90,-582 60,-173 145,-320 256,-438 110,-119 237,-208 382,-269 144,-60 303,-90 476,-90 206,0 386,39 538,117 151,78 292,200 421,367l0 -98c0,-124 32,-221 95,-289 62,-68 142,-102 241,-102 140,0 234,45 281,135 46,91 69,220 69,390zm-2114 907c0,290 64,509 193,657 130,149 296,223 501,223 121,0 236,-32 344,-96 107,-63 195,-160 263,-288 67,-128 101,-284 101,-467 0,-292 -66,-519 -196,-682 -131,-162 -303,-243 -517,-243 -208,0 -375,78 -501,233 -125,156 -188,377 -188,663zm6957 22c0,214 -34,410 -101,590 -69,179 -166,334 -295,463 -128,129 -282,228 -460,297 -178,69 -379,103 -602,103 -222,0 -421,-34 -597,-104 -176,-70 -330,-170 -460,-301 -128,-129 -227,-283 -294,-460 -66,-178 -100,-374 -100,-589 0,-216 34,-414 101,-594 69,-180 166,-334 293,-462 126,-127 280,-225 460,-294 180,-69 379,-103 597,-103 221,0 422,34 602,104 179,70 334,170 463,300 128,128 226,282 293,461 66,178 100,375 100,589zm-734 0c0,-291 -66,-517 -196,-680 -132,-162 -307,-243 -528,-243 -143,0 -269,35 -377,108 -109,72 -193,180 -251,321 -60,141 -89,307 -89,494 0,187 29,351 87,490 58,140 140,247 248,321 108,75 236,111 382,111 221,0 396,-81 528,-245 130,-162 196,-389 196,-677zm4678 1045l0 -71c-97,110 -194,200 -290,268 -95,69 -199,122 -310,158 -112,35 -233,53 -366,53 -174,0 -336,-36 -484,-109 -149,-72 -279,-175 -388,-310 -108,-134 -190,-292 -247,-474 -56,-181 -84,-378 -84,-589 0,-447 111,-796 334,-1045 223,-250 517,-375 880,-375 211,0 388,36 533,106 144,71 286,180 422,328l0 -1056c0,-147 31,-258 90,-333 60,-75 145,-113 256,-113 110,0 195,35 255,104 60,69 90,171 90,305l0 3153c0,136 -32,238 -96,306 -65,68 -148,102 -249,102 -100,0 -183,-35 -248,-106 -65,-71 -98,-172 -98,-302zm-1435 -1050c0,194 31,359 92,495 62,136 146,238 253,307 107,69 224,104 350,104 129,0 246,-33 352,-99 105,-65 190,-165 253,-300 63,-136 95,-304 95,-507 0,-190 -32,-353 -95,-490 -63,-138 -148,-242 -256,-315 -108,-72 -226,-108 -354,-108 -134,0 -253,37 -358,111 -105,74 -187,181 -245,319 -58,140 -87,301 -87,483zm6075 1057c-177,134 -348,234 -512,301 -166,67 -351,100 -556,100 -187,0 -352,-36 -494,-109 -141,-72 -251,-170 -327,-294 -77,-124 -115,-258 -115,-403 0,-196 63,-362 189,-500 127,-139 302,-231 524,-278 45,-11 160,-34 344,-71 183,-36 341,-69 472,-101 131,-30 273,-67 426,-111 -9,-188 -47,-327 -116,-415 -69,-88 -211,-132 -427,-132 -185,0 -325,25 -418,76 -94,50 -175,126 -241,228 -67,101 -114,167 -142,200 -28,33 -87,49 -178,49 -82,0 -153,-26 -212,-78 -60,-51 -90,-117 -90,-198 0,-126 46,-248 136,-367 91,-119 233,-217 426,-293 192,-77 432,-116 720,-116 320,0 573,38 757,112 183,74 313,191 389,352 76,161 114,374 114,640 0,168 -1,310 -2,427 -1,117 -2,248 -3,391 0,134 22,274 68,420 46,145 68,239 68,281 0,73 -35,140 -105,200 -72,60 -151,90 -241,90 -74,0 -148,-34 -221,-102 -73,-69 -151,-169 -233,-299zm-49 -1036c-106,38 -262,79 -466,121 -204,43 -345,75 -424,95 -78,21 -153,60 -225,118 -71,59 -106,140 -106,246 0,108 42,200 126,276 83,76 192,115 328,115 145,0 278,-32 399,-93 123,-63 212,-143 270,-241 65,-108 98,-287 98,-536l0 -101z"/>
   </g>
  </g>
 </g>
</svg>
